<?xml version="1.0" encoding="UTF-8" standalone="no"?>
<!DOCTYPE svg PUBLIC "-//W3C//DTD SVG 1.1//EN"
 "http://www.w3.org/Graphics/SVG/1.1/DTD/svg11.dtd">
<!-- Generated by graphviz version 2.28.0 (20111028.1807)
 -->
<!-- Title: controllers_diagram Pages: 1 -->
<svg width="607pt" height="402pt"
 viewBox="0.00 0.00 606.74 402.00" xmlns="http://www.w3.org/2000/svg" xmlns:xlink="http://www.w3.org/1999/xlink">
<g id="graph1" class="graph" transform="scale(1 1) rotate(0) translate(4 398)">
<title>controllers_diagram</title>
<polygon fill="white" stroke="white" points="-4,5 -4,-398 603.741,-398 603.741,5 -4,5"/>
<!-- _diagram_info -->
<g id="node1" class="node"><title>_diagram_info</title>
<text text-anchor="start" x="399.841" y="-377" font-family="Times,serif" font-size="13.00">Controllers diagram</text>
<text text-anchor="start" x="399.841" y="-361.4" font-family="Times,serif" font-size="13.00">Date: Nov 29 2012 &#45; 19:38</text>
<text text-anchor="start" x="399.841" y="-345.8" font-family="Times,serif" font-size="13.00">Migration version: 20121130025440</text>
<text text-anchor="start" x="399.841" y="-330.2" font-family="Times,serif" font-size="13.00">Generated by RailRoady 1.1.0</text>
<text text-anchor="start" x="399.841" y="-314.6" font-family="Times,serif" font-size="13.00">http://railroady.prestonlee.com</text>
</g>
<!-- ApplicationController -->
<g id="node2" class="node"><title>ApplicationController</title>
<polyline fill="none" stroke="black" points="11.8413,-99.17 190.476,-99.17 "/>
<path fill="none" stroke="black" d="M190.476,-99.17C196.476,-99.17 202.476,-105.17 202.476,-111.17"/>
<polyline fill="none" stroke="black" points="202.476,-111.17 202.476,-202.37 "/>
<path fill="none" stroke="black" d="M202.476,-202.37C202.476,-208.37 196.476,-214.37 190.476,-214.37"/>
<polyline fill="none" stroke="black" points="190.476,-214.37 11.8413,-214.37 "/>
<path fill="none" stroke="black" d="M11.8413,-214.37C5.84131,-214.37 -0.158691,-208.37 -0.158691,-202.37"/>
<polyline fill="none" stroke="black" points="-0.158691,-202.37 -0.158691,-111.17 "/>
<path fill="none" stroke="black" d="M-0.158691,-111.17C-0.158691,-105.17 5.84131,-99.17 11.8413,-99.17"/>
<text text-anchor="middle" x="101.159" y="-196.37" font-family="Times,serif" font-size="14.00">ApplicationController</text>
<polyline fill="none" stroke="black" points="-0.158691,-189.57 202.476,-189.57 "/>
<text text-anchor="start" x="7.84131" y="-171.57" font-family="Times,serif" font-size="14.00">_one_time_conditions_valid_14?</text>
<polyline fill="none" stroke="black" points="-0.158691,-164.77 202.476,-164.77 "/>
<polyline fill="none" stroke="black" points="-0.158691,-140.77 202.476,-140.77 "/>
<text text-anchor="start" x="7.84131" y="-122.77" font-family="Times,serif" font-size="14.00">_layout</text>
<text text-anchor="start" x="7.84131" y="-105.97" font-family="Times,serif" font-size="14.00">current_user</text>
</g>
<!-- TweetsController -->
<g id="node3" class="node"><title>TweetsController</title>
<polyline fill="none" stroke="black" points="222.476,-0.5 401.111,-0.5 "/>
<path fill="none" stroke="black" d="M401.111,-0.5C407.111,-0.5 413.111,-6.5 413.111,-12.5"/>
<polyline fill="none" stroke="black" points="413.111,-12.5 413.111,-238.1 "/>
<path fill="none" stroke="black" d="M413.111,-238.1C413.111,-244.1 407.111,-250.1 401.111,-250.1"/>
<polyline fill="none" stroke="black" points="401.111,-250.1 222.476,-250.1 "/>
<path fill="none" stroke="black" d="M222.476,-250.1C216.476,-250.1 210.476,-244.1 210.476,-238.1"/>
<polyline fill="none" stroke="black" points="210.476,-238.1 210.476,-12.5 "/>
<path fill="none" stroke="black" d="M210.476,-12.5C210.476,-6.5 216.476,-0.5 222.476,-0.5"/>
<text text-anchor="middle" x="311.793" y="-232.1" font-family="Times,serif" font-size="14.00">TweetsController</text>
<polyline fill="none" stroke="black" points="210.476,-225.3 413.111,-225.3 "/>
<text text-anchor="start" x="218.476" y="-207.3" font-family="Times,serif" font-size="14.00">_one_time_conditions_valid_20?</text>
<text text-anchor="start" x="218.476" y="-190.5" font-family="Times,serif" font-size="14.00">create</text>
<text text-anchor="start" x="218.476" y="-173.7" font-family="Times,serif" font-size="14.00">destroy</text>
<text text-anchor="start" x="218.476" y="-156.9" font-family="Times,serif" font-size="14.00">edit</text>
<text text-anchor="start" x="218.476" y="-140.1" font-family="Times,serif" font-size="14.00">index</text>
<text text-anchor="start" x="218.476" y="-123.3" font-family="Times,serif" font-size="14.00">my_tweets</text>
<text text-anchor="start" x="218.476" y="-106.5" font-family="Times,serif" font-size="14.00">new</text>
<text text-anchor="start" x="218.476" y="-89.7" font-family="Times,serif" font-size="14.00">show</text>
<text text-anchor="start" x="218.476" y="-72.9" font-family="Times,serif" font-size="14.00">update</text>
<polyline fill="none" stroke="black" points="210.476,-66.1 413.111,-66.1 "/>
<polyline fill="none" stroke="black" points="210.476,-42.1 413.111,-42.1 "/>
<text text-anchor="start" x="218.476" y="-24.1" font-family="Times,serif" font-size="14.00">_layout</text>
<text text-anchor="start" x="218.476" y="-7.3" font-family="Times,serif" font-size="14.00">ensure_owned</text>
</g>
<!-- ApplicationController&#45;&gt;TweetsController -->
<g id="edge2" class="edge"><title>ApplicationController&#45;&gt;TweetsController</title>
<path fill="none" stroke="black" d="M202.774,-141.588C205.299,-141.211 207.827,-140.833 210.351,-140.456"/>
</g>
</g>
</svg>
