<?xml version="1.0" encoding="UTF-8" standalone="no"?>
<!DOCTYPE svg PUBLIC "-//W3C//DTD SVG 1.1//EN"
 "http://www.w3.org/Graphics/SVG/1.1/DTD/svg11.dtd">
<!-- Generated by graphviz version 2.28.0 (20111028.1807)
 -->
<!-- Title: models_diagram Pages: 1 -->
<svg width="365pt" height="550pt"
 viewBox="0.00 0.00 365.00 550.00" xmlns="http://www.w3.org/2000/svg" xmlns:xlink="http://www.w3.org/1999/xlink">
<g id="graph1" class="graph" transform="scale(1 1) rotate(0) translate(4 546)">
<title>models_diagram</title>
<polygon fill="white" stroke="white" points="-4,5 -4,-546 362,-546 362,5 -4,5"/>
<!-- _diagram_info -->
<g id="node1" class="node"><title>_diagram_info</title>
<text text-anchor="start" x="7.55029" y="-374" font-family="Times,serif" font-size="13.00">Models diagram</text>
<text text-anchor="start" x="7.55029" y="-358.4" font-family="Times,serif" font-size="13.00">Date: Nov 29 2012 &#45; 19:38</text>
<text text-anchor="start" x="7.55029" y="-342.8" font-family="Times,serif" font-size="13.00">Migration version: 20121130025440</text>
<text text-anchor="start" x="7.55029" y="-327.2" font-family="Times,serif" font-size="13.00">Generated by RailRoady 1.1.0</text>
<text text-anchor="start" x="7.55029" y="-311.6" font-family="Times,serif" font-size="13.00">http://railroady.prestonlee.com</text>
</g>
<!-- Tweet -->
<g id="node2" class="node"><title>Tweet</title>
<polyline fill="none" stroke="black" points="236.495,-0.6 345.505,-0.6 "/>
<path fill="none" stroke="black" d="M345.505,-0.6C351.505,-0.6 357.505,-6.6 357.505,-12.6"/>
<polyline fill="none" stroke="black" points="357.505,-12.6 357.505,-105.4 "/>
<path fill="none" stroke="black" d="M357.505,-105.4C357.505,-111.4 351.505,-117.4 345.505,-117.4"/>
<polyline fill="none" stroke="black" points="345.505,-117.4 236.495,-117.4 "/>
<path fill="none" stroke="black" d="M236.495,-117.4C230.495,-117.4 224.495,-111.4 224.495,-105.4"/>
<polyline fill="none" stroke="black" points="224.495,-105.4 224.495,-12.6 "/>
<path fill="none" stroke="black" d="M224.495,-12.6C224.495,-6.6 230.495,-0.6 236.495,-0.6"/>
<text text-anchor="middle" x="291" y="-99.4" font-family="Times,serif" font-size="14.00">Tweet</text>
<polyline fill="none" stroke="black" points="224.495,-92.6 357.505,-92.6 "/>
<text text-anchor="start" x="232.495" y="-74.6" font-family="Times,serif" font-size="14.00">id :integer</text>
<text text-anchor="start" x="232.495" y="-57.8" font-family="Times,serif" font-size="14.00">body :text</text>
<text text-anchor="start" x="232.495" y="-41" font-family="Times,serif" font-size="14.00">created_at :datetime</text>
<text text-anchor="start" x="232.495" y="-24.2" font-family="Times,serif" font-size="14.00">updated_at :datetime</text>
<text text-anchor="start" x="232.495" y="-7.4" font-family="Times,serif" font-size="14.00">user_id :integer</text>
</g>
<!-- User -->
<g id="node3" class="node"><title>User</title>
<polyline fill="none" stroke="black" points="236.495,-155.2 345.505,-155.2 "/>
<path fill="none" stroke="black" d="M345.505,-155.2C351.505,-155.2 357.505,-161.2 357.505,-167.2"/>
<polyline fill="none" stroke="black" points="357.505,-167.2 357.505,-528.8 "/>
<path fill="none" stroke="black" d="M357.505,-528.8C357.505,-534.8 351.505,-540.8 345.505,-540.8"/>
<polyline fill="none" stroke="black" points="345.505,-540.8 236.495,-540.8 "/>
<path fill="none" stroke="black" d="M236.495,-540.8C230.495,-540.8 224.495,-534.8 224.495,-528.8"/>
<polyline fill="none" stroke="black" points="224.495,-528.8 224.495,-167.2 "/>
<path fill="none" stroke="black" d="M224.495,-167.2C224.495,-161.2 230.495,-155.2 236.495,-155.2"/>
<text text-anchor="middle" x="291" y="-522.8" font-family="Times,serif" font-size="14.00">User</text>
<polyline fill="none" stroke="black" points="224.495,-516 357.505,-516 "/>
<text text-anchor="start" x="232.495" y="-498" font-family="Times,serif" font-size="14.00">id :integer</text>
<text text-anchor="start" x="232.495" y="-481.2" font-family="Times,serif" font-size="14.00">provider :string</text>
<text text-anchor="start" x="232.495" y="-464.4" font-family="Times,serif" font-size="14.00">uid :string</text>
<text text-anchor="start" x="232.495" y="-447.6" font-family="Times,serif" font-size="14.00">email :string</text>
<text text-anchor="start" x="232.495" y="-430.8" font-family="Times,serif" font-size="14.00">username :string</text>
<text text-anchor="start" x="232.495" y="-414" font-family="Times,serif" font-size="14.00">verified :boolean</text>
<text text-anchor="start" x="232.495" y="-397.2" font-family="Times,serif" font-size="14.00">admin :boolean</text>
<text text-anchor="start" x="232.495" y="-380.4" font-family="Times,serif" font-size="14.00">referred_by :string</text>
<text text-anchor="start" x="232.495" y="-363.6" font-family="Times,serif" font-size="14.00">token :string</text>
<text text-anchor="start" x="232.495" y="-346.8" font-family="Times,serif" font-size="14.00">facebook :text</text>
<text text-anchor="start" x="232.495" y="-330" font-family="Times,serif" font-size="14.00">tags :text</text>
<text text-anchor="start" x="232.495" y="-313.2" font-family="Times,serif" font-size="14.00">referred :text</text>
<text text-anchor="start" x="232.495" y="-296.4" font-family="Times,serif" font-size="14.00">google :text</text>
<text text-anchor="start" x="232.495" y="-279.6" font-family="Times,serif" font-size="14.00">twitter :text</text>
<text text-anchor="start" x="232.495" y="-262.8" font-family="Times,serif" font-size="14.00">github :text</text>
<text text-anchor="start" x="232.495" y="-246" font-family="Times,serif" font-size="14.00">access_tokens :text</text>
<text text-anchor="start" x="232.495" y="-229.2" font-family="Times,serif" font-size="14.00">subscribed :boolean</text>
<text text-anchor="start" x="232.495" y="-212.4" font-family="Times,serif" font-size="14.00">display :string</text>
<text text-anchor="start" x="232.495" y="-195.6" font-family="Times,serif" font-size="14.00">identities :text</text>
<text text-anchor="start" x="232.495" y="-178.8" font-family="Times,serif" font-size="14.00">created_at :datetime</text>
<text text-anchor="start" x="232.495" y="-162" font-family="Times,serif" font-size="14.00">updated_at :datetime</text>
</g>
<!-- User&#45;&gt;Tweet -->
<g id="edge2" class="edge"><title>User&#45;&gt;Tweet</title>
<path fill="none" stroke="#13932c" d="M291,-147.133C291,-140.475 291,-134.009 291,-127.807"/>
<ellipse fill="none" stroke="#13932c" cx="291" cy="-151.168" rx="4" ry="4"/>
<polygon fill="#13932c" stroke="#13932c" points="291,-127.632 295.5,-117.632 291,-122.632 291,-117.632 291,-117.632 291,-117.632 291,-122.632 286.5,-117.633 291,-127.632 291,-127.632"/>
</g>
</g>
</svg>
