<?xml version="1.0" encoding="UTF-8" standalone="no"?>
<!DOCTYPE svg PUBLIC "-//W3C//DTD SVG 1.1//EN"
 "http://www.w3.org/Graphics/SVG/1.1/DTD/svg11.dtd">
<!-- Generated by graphviz version 2.28.0 (20111028.1807)
 -->
<!-- Title: models_diagram Pages: 1 -->
<svg width="296pt" height="166pt"
 viewBox="0.00 0.00 296.00 166.00" xmlns="http://www.w3.org/2000/svg" xmlns:xlink="http://www.w3.org/1999/xlink">
<g id="graph1" class="graph" transform="scale(1 1) rotate(0) translate(4 162)">
<title>models_diagram</title>
<polygon fill="white" stroke="white" points="-4,5 -4,-162 293,-162 293,5 -4,5"/>
<!-- _diagram_info -->
<g id="node1" class="node"><title>_diagram_info</title>
<text text-anchor="start" x="7.55029" y="-141" font-family="Times,serif" font-size="13.00">Models diagram</text>
<text text-anchor="start" x="7.55029" y="-125.4" font-family="Times,serif" font-size="13.00">Date: Nov 29 2012 &#45; 19:38</text>
<text text-anchor="start" x="7.55029" y="-109.8" font-family="Times,serif" font-size="13.00">Migration version: 20121130025440</text>
<text text-anchor="start" x="7.55029" y="-94.2" font-family="Times,serif" font-size="13.00">Generated by RailRoady 1.1.0</text>
<text text-anchor="start" x="7.55029" y="-78.6" font-family="Times,serif" font-size="13.00">http://railroady.prestonlee.com</text>
</g>
<!-- Tweet -->
<g id="node2" class="node"><title>Tweet</title>
<ellipse fill="none" stroke="black" cx="254" cy="-18" rx="34.2357" ry="18"/>
<text text-anchor="middle" x="254" y="-12.4" font-family="Times,serif" font-size="14.00">Tweet</text>
</g>
<!-- User -->
<g id="node3" class="node"><title>User</title>
<ellipse fill="none" stroke="black" cx="254" cy="-115" rx="28.9087" ry="18"/>
<text text-anchor="middle" x="254" y="-109.4" font-family="Times,serif" font-size="14.00">User</text>
</g>
<!-- User&#45;&gt;Tweet -->
<g id="edge2" class="edge"><title>User&#45;&gt;Tweet</title>
<path fill="none" stroke="#32e487" d="M254,-88.4138C254,-75.5178 254,-59.8618 254,-46.6847"/>
<ellipse fill="none" stroke="#32e487" cx="254" cy="-92.5755" rx="4" ry="4"/>
<polygon fill="#32e487" stroke="#32e487" points="254,-46.314 258.5,-36.314 254,-41.314 254,-36.314 254,-36.314 254,-36.314 254,-41.314 249.5,-36.314 254,-46.314 254,-46.314"/>
</g>
</g>
</svg>
